# xmcd
#
# Track frame offsets:
#	150
#	15803
#	40400
#	60867
#	86720
#	124177
#	151779
#	168876
#	182594
#	198204
#	212594
#	231329
#
# Disc length: 3581 seconds
#
# Revision: 1
# Processed by: cddbd v1.5.2PL0 Copyright (c) Steve Scherf et al.
# Submitted via: EasyCDDAExtractor 10.0.6.1
#
DISCID=890dfb0c
DTITLE=Various Artist - Original Motion Picture Soundtrack
DYEAR=1992
DGENRE=Rock and Roll
TTITLE0=Alice In Chains - Would
TTITLE1=Pearl Jam - Breath
TTITLE2=Paul Westerberg - Dyslexic Heart
TTITLE3=The Lovemongers - Battle of Evermore
TTITLE4=Mother Love Bone - Chloe Dancer, Crown of Thorns
TTITLE5=Soundgarden - Birth Ritual
TTITLE6=Pearl Jam - State Of Love And Trust
TTITLE7=Mudhoney - Overblown
TTITLE8=Paul Westerberg - Waiting For Somebody
TTITLE9=Jimi Hendrix - May This Be Love
TTITLE10=Screaming Trees - Nearly Lost You
TTITLE11=Smashing Pumpkins - Drown
EXTD=
EXTT0=
EXTT1=
EXTT2=
EXTT3=
EXTT4=
EXTT5=
EXTT6=
EXTT7=
EXTT8=
EXTT9=
EXTT10=
EXTT11=
PLAYORDER=
